# xmcd
#
# Track frame offsets: 
#        150
#        21341
#        40981
#        55140
#        71179
#        91312
#        111807
#        135396
#        163644
#        178572
#        203133
#        219788
#        255353
#        271263
#        291072
#        315267
#        336319
#
# Disc length: 4775 seconds
#
# Revision: 0
# Processed by: cddbd v1.5.2PL0 Copyright (c) Steve Scherf et al.
# Submitted via: ExactAudioCopy v1.3
#
DISCID=ee12a511
DTITLE=Various Artist - Akella Presents - vol. 126 - Blues-Rock  CD1
DYEAR=2018
DGENRE=Blues
TTITLE0=Mom's Rocket - By a Thread
TTITLE1=Brad Gillis - Same Old Blues
TTITLE2=The Sweet Lord Animals - 14 Dollars
TTITLE3=Titanium Blue - When I Fall
TTITLE4=Firewire - Catfish Blues
TTITLE5=Bobby Messano - Bad Movie
TTITLE6=Da JuJu Boys - I'm Walkin'
TTITLE7=Michael Williams Band - Lately
TTITLE8=Brad Curtis and The SOME x 6 Band - Forty Years 2017
TTITLE9=Alistair Greene - Big Bad Wolf
TTITLE10=Gregg Wright's Left Hook - Heidi Ann
TTITLE11=Julian Sas - Make Up Your Mind
TTITLE12=Bjorn Berge - Asshole
TTITLE13=Hot'n'Nasty - Shake The Devil's Hand
TTITLE14=Jeffrey David's Blues Connection - Long Cold Lonely Winter
TTITLE15=King Pima Wolf and Big Medicine - Magic Man Blues
TTITLE16=Tony McAlpine, George Lynch, Mike Varney - You Shook Me
EXTD=
EXTT0=
EXTT1=
EXTT2=
EXTT3=
EXTT4=
EXTT5=
EXTT6=
EXTT7=
EXTT8=
EXTT9=
EXTT10=
EXTT11=
EXTT12=
EXTT13=
EXTT14=
EXTT15=
EXTT16=
PLAYORDER=
